<?xml version="1.0" encoding="utf-8"?>
<!-- Generator: Adobe Illustrator 26.0.3, SVG Export Plug-In . SVG Version: 6.00 Build 0)  -->
<svg version="1.1" id="Layer_1" xmlns="http://www.w3.org/2000/svg" xmlns:xlink="http://www.w3.org/1999/xlink" x="0px" y="0px"
	 viewBox="0 0 247.87 148.84" style="enable-background:new 0 0 247.87 148.84;" xml:space="preserve">
<style type="text/css">
	.st0{fill:#737A34;}
</style>
<g>
	<path class="st0" d="M247.87,24.6v99.64c0,4.39-1.16,8.52-3.18,12.1l-86.94-64.38l84.72-62.73
		C245.85,13.44,247.87,18.79,247.87,24.6z"/>
	<path class="st0" d="M236.06,145.25c-3.73,2.29-8.11,3.59-12.79,3.59H24.6c-4.68,0-9.06-1.3-12.79-3.59l88.64-65.64l9.93,7.36
		c3.79,2.81,8.67,4.21,13.54,4.21c4.87,0,9.75-1.4,13.54-4.21l9.93-7.36L236.06,145.25z"/>
	<path class="st0" d="M90.13,71.96L3.19,136.34c-2.03-3.58-3.18-7.7-3.18-12.1V24.6c0-5.81,2.03-11.16,5.41-15.37L90.13,71.96z"/>
	<path class="st0" d="M232.06,1.62L147.4,64.3l-10.33,7.65l-6.91,5.12c-3.27,2.41-9.19,2.41-12.45,0l-6.91-5.12l-10.33-7.65
		L15.81,1.62C18.54,0.57,21.51,0,24.6,0h198.67C226.36,0,229.33,0.57,232.06,1.62z"/>
</g>
</svg>
